# xmcd
#
# Track frame offsets:
#	150
#	11674
#	25217
#	38983
#	46408
#	62795
#	73311
#	92294
#	103977
#	116826
#	128244
#	143828
#	158735
#	169390
#	179144
#	190485
#	204333
#
# Disc length: 2877 seconds
#
# Revision: 1
# Processed by: cddbd v1.5.2PL0 Copyright (c) Steve Scherf et al.
# Submitted via: audiograbber 1.83.01
#
DISCID=000b3b11
DTITLE=Various / Zentiva--Muzica de relaxare
DYEAR=2006
DGENRE=Ambient
TTITLE0=Ian Clarke, Simon Painter / Booraye
TTITLE1=Jamie Winchester, Tibor Bornai / Soaring Above
TTITLE2=Matthias Wittwer, Clements Schweikhart / Beautiful Highlands
TTITLE3=John Pitman / Country Walk
TTITLE4=Dean Landon, Anika Paris / Do Heroes Dream
TTITLE5=Sandra M. Levy, John J. Hayes / Old Covered Bridge B
TTITLE6=Cy Jack, Duncan Aran / Tuiraid Iain Ruabh
TTITLE7=Lindsay Tomasic / Mysteries A
TTITLE8=Lindsay Tomasic, Lisa Rapport / Old 41 A
TTITLE9=Jamie Winchester, Tibor Bornai / Mediterranean Trip
TTITLE10=Quito Colayco / Mystic Veil
TTITLE11=Ian Clarke, Simon Painter / Knockanore Hill
TTITLE12=Geoff Bastow, Jim Harbourg / Heavy Heart A
TTITLE13=Clair Marlo, Alexander Baker / Feather in the Breeze
TTITLE14=Michael Bräumer, Uwe Clemens / Wild Flowers
TTITLE15=Ryan James, Matteo Imbrianti / Drones
TTITLE16=Matthias Wittwer, Clements Schweikhart / Mediterranean Sea
EXTD=
EXTT0=
EXTT1=
EXTT2=
EXTT3=
EXTT4=
EXTT5=
EXTT6=
EXTT7=
EXTT8=
EXTT9=
EXTT10=
EXTT11=
EXTT12=
EXTT13=
EXTT14=
EXTT15=
EXTT16=
PLAYORDER=
